<svg width="400" height="400" viewBox="0 0 400 400" fill="none" xmlns="http://www.w3.org/2000/svg">
<path d="M200.093 193.301L10.8017 69.1144C5.98616 65.9551 5.98616 58.8958 10.8017 55.7365L91.3648 2.88192C94.0315 1.13241 97.4826 1.13398 100.148 2.88593L390.322 193.638C394.998 196.712 395.155 203.514 390.625 206.799L220.96 329.846C216.103 333.368 216.708 340.785 222.072 343.474L304.611 384.848C312.154 388.629 309.464 400 301.027 400H97.5415C95.9822 400 94.4569 399.544 93.1532 398.689L10.2103 344.273C5.391 341.111 5.3957 334.045 10.2192 330.889L200.084 206.685C204.907 203.53 204.912 196.463 200.093 193.301Z" fill="#2C98FF"/>
<path d="M0 286.985V113.025C0 106.639 7.11462 102.827 12.4315 106.365L146.488 195.56C151.313 198.77 151.23 205.885 146.332 208.982L12.2755 293.747C6.94867 297.115 0 293.288 0 286.985Z" fill="#2C98FF"/>
</svg>
